<svg width="48" height="48" viewBox="0 0 48 48" fill="none" xmlns="http://www.w3.org/2000/svg">
<path d="M17.183 9.8571L20.1116 4H18.6473L15.7188 9.8571H17.183Z" fill="#0755E9"/>
<path d="M14.2499 9.8571L17.1785 4H5.46427C4.65565 4 4 4.65565 4 5.46427V9.8571H14.2499ZM11.3214 5.46427C12.13 5.46427 12.7856 6.11993 12.7856 6.92855C12.7856 7.73717 12.13 8.39282 11.3214 8.39282C10.5128 8.39282 9.8571 7.73717 9.8571 6.92855C9.8571 6.11993 10.5128 5.46427 11.3214 5.46427ZM6.92855 5.46427C7.73717 5.46427 8.39282 6.11993 8.39282 6.92855C8.39282 7.73717 7.73717 8.39282 6.92855 8.39282C6.11993 8.39282 5.46427 7.73717 5.46427 6.92855C5.46427 6.11993 6.11993 5.46427 6.92855 5.46427Z" fill="#0755E9"/>
<path d="M34.7476 9.8571V5.46427C34.7476 4.65565 34.092 4 33.2834 4H21.5692L18.6406 9.8571H34.7476Z" fill="#0755E9"/>
<path d="M23.0355 40.6061V22.8917L23.0473 22.9025C23.1741 18.6881 29.1472 17.1774 34.7498 17.1774V11.3203H4V43.5344C4 44.343 4.65565 44.9986 5.46427 44.9986H26.4369C24.4039 44.0688 23.0357 42.6525 23.0357 40.6058L23.0355 40.6061ZM11.0578 33.454C11.3679 33.7128 11.4101 34.1747 11.1516 34.4858C11.0064 34.6597 10.7982 34.7489 10.5881 34.7489C10.423 34.7489 10.257 34.693 10.1197 34.5796L5.72687 30.9189C5.56051 30.7794 5.46376 30.5735 5.46376 30.3561C5.46376 30.1387 5.56018 29.9328 5.72687 29.7933L10.1197 26.1326C10.4315 25.8737 10.8927 25.9159 11.1515 26.2264C11.4104 26.5375 11.3682 26.9994 11.0577 27.2582L7.33982 30.3561L11.0578 33.454ZM21.3077 30.9189L16.9149 34.5796C16.7776 34.6934 16.6115 34.7489 16.4465 34.7489C16.2363 34.7489 16.0281 34.6597 15.883 34.4858C15.6241 34.1746 15.6663 33.7128 15.9768 33.454L19.6947 30.3561L15.9768 27.2583C15.6666 26.9994 15.6245 26.5376 15.883 26.2265C16.1419 25.9163 16.603 25.8741 16.9148 26.1327L21.3077 29.7933C21.4744 29.9332 21.5708 30.1391 21.5708 30.3565C21.5708 30.5739 21.4744 30.7797 21.3077 30.9189Z" fill="#E7ECF8"/>
<path d="M34.7499 18.6426C29.6478 18.6426 24.5 20.0009 24.5 23.0354C24.5 26.0699 29.6478 27.4282 34.7499 27.4282C39.852 27.4282 44.9998 26.0699 44.9998 23.0354C44.9998 20.0009 39.852 18.6426 34.7499 18.6426Z" fill="#0755E9"/>
<path d="M34.7499 28.8947C30.7837 28.8947 26.6347 28.1351 24.5 26.1992V28.8947C24.5 31.9292 29.6478 33.2876 34.7499 33.2876C39.852 33.2876 44.9998 31.9292 44.9998 28.8947V26.1992C42.8652 28.1352 38.7162 28.8947 34.7499 28.8947Z" fill="#0755E9"/>
<path d="M34.7499 34.7502C30.7837 34.7502 26.6347 33.9906 24.5 32.0547V34.7502C24.5 37.7847 29.6478 39.143 34.7499 39.143C39.852 39.143 44.9998 37.7847 44.9998 34.7502V32.0547C42.8652 33.9906 38.7162 34.7502 34.7499 34.7502Z" fill="#0755E9"/>
<path d="M34.7499 40.6076C30.7837 40.6076 26.6347 39.848 24.5 37.9121V40.6076C24.5 43.6421 29.6478 45.0005 34.7499 45.0005C39.852 45.0005 44.9998 43.6421 44.9998 40.6076V37.9121C42.8652 39.848 38.7162 40.6076 34.7499 40.6076Z" fill="#0755E9"/>
</svg>
