<svg xmlns="http://www.w3.org/2000/svg" width="60" height="60" viewBox="0 0 60 60">
  <g id="Customer_Experience_Exellence" data-name="Customer Experience Exellence" transform="translate(-1092 -336)">
    <rect id="Rectangle_150" data-name="Rectangle 150" width="60" height="60" rx="30" transform="translate(1092 336)" fill="#4fd6e5"/>
    <g id="Group_197" data-name="Group 197" transform="translate(1275.709 334.758)">
      <path id="Path_645" data-name="Path 645" d="M-153.7,12.242c-10.177.327-18.025,7.915-18.011,18.087A17.717,17.717,0,0,0-153.77,48.316a17.72,17.72,0,0,0,18.061-18.064C-135.73,20.216-143.467,12.59-153.7,12.242Zm-1.028,33.811c-7.573-.446-14.39-7.273-14.746-15.067a16.035,16.035,0,0,1,16.831-16.413c7.468.457,15.031,7.4,14.6,15.732C-137.508,38.2-144.921,46.63-154.726,46.053Z" fill="#fff"/>
      <path id="Path_646" data-name="Path 646" d="M-138.817,23.2a1.024,1.024,0,0,0-.652-.827,1.164,1.164,0,0,0-1.345.4c-1.892,1.89-3.8,3.766-5.666,5.679a1.587,1.587,0,0,1-1.837.514,3.556,3.556,0,0,0-4,1.37,3.625,3.625,0,0,0-.447,4.135,4.055,4.055,0,0,0,3.434,2.235,3.966,3.966,0,0,0,3.845-4.946A1.535,1.535,0,0,1-145.006,30c1.891-1.843,3.744-3.725,5.611-5.592A1.37,1.37,0,0,0-138.817,23.2Zm-10.448,11.145a1.536,1.536,0,0,1-1.6-1.665,1.435,1.435,0,0,1,1.666-1.548,1.538,1.538,0,0,1,1.546,1.715A1.418,1.418,0,0,1-149.265,34.341Z" transform="translate(-4.453 -2.418)" fill="#fff"/>
      <path id="Path_647" data-name="Path 647" d="M-147.745,22.863a.988.988,0,0,0,1.484-.548c.293-.743-.131-1.221-.772-1.514a11.649,11.649,0,0,0-6.452-.968A12.631,12.631,0,0,0-164.35,31.7c-.018.743.248,1.388,1.042,1.484.831.1,1.152-.523,1.281-1.245a2.623,2.623,0,0,0,.033-.5c-.061-4.754,4.7-9.66,9.85-9.373A9.707,9.707,0,0,1-147.745,22.863Z" transform="translate(-1.772 -1.803)" fill="#fff"/>
      <path id="Path_648" data-name="Path 648" d="M-135.289,28.645a.936.936,0,0,0-.556,1.321,12.329,12.329,0,0,1,.848,4.1c.049.687.407,1.277,1.174,1.252.817-.027,1.083-.662,1.151-1.357a12.251,12.251,0,0,0-1.182-4.765A1.059,1.059,0,0,0-135.289,28.645Z" transform="translate(-8.612 -3.925)" fill="#fff"/>
    </g>
  </g>
</svg>
