<svg xmlns="http://www.w3.org/2000/svg" width="60" height="60" viewBox="0 0 60 60">
  <g id="Decades_of_Experience" data-name="Decades of Experience" transform="translate(-1332 -336)">
    <rect id="Rectangle_160" data-name="Rectangle 160" width="60" height="60" rx="30" transform="translate(1332 336)" fill="#4fd6e5"/>
    <path id="Union_13" data-name="Union 13" d="M.591,36a.59.59,0,1,1,0-1.181h5.6V20.907L.559,15.79a1.651,1.651,0,0,1,2.205-2.456L7,17.1h5.6a.758.758,0,0,1,.586.278l4.216,5.155V.758A.758.758,0,0,1,18.168,0h8.523a.758.758,0,0,1,.758.758v1.6h5.659a.758.758,0,0,1,.7,1.039l-1,2.5,1,2.5a.758.758,0,0,1-.7,1.039H25.254a.758.758,0,0,1-.757-.758v-1.6H18.591v15.45l4.217-5.155a.757.757,0,0,1,.586-.278H29l4.24-3.768a1.65,1.65,0,0,1,2.2,2.455l-5.63,5.117V34.819h5.6a.59.59,0,1,1,0,1.181Zm26.267-8.857v7.677H28.63V20.72a.757.757,0,0,1,.248-.56l5.768-5.244a.468.468,0,0,0,.074-.6.467.467,0,0,0-.7-.094L29.66,18.093a.755.755,0,0,1-.5.192H23.6L19.2,23.653a.48.48,0,0,0-.1.374.473.473,0,0,0,.209.327.481.481,0,0,0,.631-.084L22.573,21.2a.757.757,0,0,1,1.332.493V34.819h1.772V27.143a.59.59,0,1,1,1.181,0ZM13.276,34.819h9.449V22.831l-1.885,2.2a1.661,1.661,0,0,1-2.18.3.816.816,0,0,1-.065-.052V29.5a.59.59,0,1,1-1.181,0v-4.22c-.021.016-.04.035-.062.049a1.662,1.662,0,0,1-2.185-.3l-1.89-2.2Zm-2.952-7.677v7.677h1.771V21.69a.757.757,0,0,1,1.332-.493l2.634,3.07a.48.48,0,0,0,.736-.616L12.4,18.284H6.844a.759.759,0,0,1-.5-.191L1.981,14.22a.468.468,0,0,0-.7.091.473.473,0,0,0,.072.608L7.123,20.16a.759.759,0,0,1,.247.56v14.1H9.142V27.143a.59.59,0,1,1,1.181,0ZM25.677,8.268h6.8l-.945-2.363.945-2.362H27.449V6.329a.757.757,0,0,1-.758.758H25.677ZM18.591,5.905h7.677V1.181H18.591ZM23.315,13.3a2.953,2.953,0,1,1,2.952,2.952A2.952,2.952,0,0,1,23.315,13.3Zm1.181,0a1.771,1.771,0,1,0,1.771-1.771A1.771,1.771,0,0,0,24.5,13.3ZM6.78,13.3A2.953,2.953,0,1,1,9.732,16.25,2.953,2.953,0,0,1,6.78,13.3Zm1.182,0a1.771,1.771,0,1,0,1.771-1.771A1.771,1.771,0,0,0,7.962,13.3Z" transform="translate(1344 348)" fill="#fff" stroke="rgba(0,0,0,0)" stroke-miterlimit="10" stroke-width="1"/>
  </g>
</svg>
