<svg xmlns="http://www.w3.org/2000/svg" width="60" height="60" viewBox="0 0 60 60">
  <g id="Dedication_To_Success" data-name="Dedication To Success" transform="translate(-1093 -488)">
    <rect id="Rectangle_151" data-name="Rectangle 151" width="60" height="60" rx="30" transform="translate(1093 488)" fill="#4fd6e5"/>
    <g id="Group_211" data-name="Group 211" transform="translate(1090.114 484.099)">
      <path id="Path_700" data-name="Path 700" d="M27.236,51.068c0-.923.007-1.848,0-2.771,0-.244.071-.32.317-.318,1.455.01,2.91,0,4.364.01.274,0,.346-.082.344-.35-.011-1.445,0-2.889-.011-4.333,0-.279.085-.348.352-.346,1.445.011,2.89,0,4.335,0,.369,0,.382-.012.382-.382,0-1.445.008-2.889,0-4.334,0-.268.069-.354.346-.351,1.454.013,2.91,0,4.364.01.242,0,.32-.066.318-.314-.01-1.454,0-2.909-.01-4.363,0-.276.079-.348.35-.346,1.838.011,9.171.011,11.008,0,.276,0,.355.08.346.35-.018.6-.012,1.2,0,1.8,0,.221-.071.289-.289.286-1.042-.009-7.578,0-8.62-.011-.278,0-.374.075-.371.363.013,1.445,0,2.889.012,4.334,0,.259-.076.337-.334.335-1.426-.011-2.851-.008-4.275-.007-.41,0-.411,0-.412.4,0,1.445,0,2.889.007,4.334,0,.259-.076.337-.335.335-1.436-.011-2.87-.007-4.305-.007-.43,0-.431,0-.431.442,0,1.405-.006,2.81.008,4.215,0,.285-.081.368-.365.364-1.426-.014-2.851-.007-4.275-.007-.384,0-.387,0-.387.395,0,1.022-.006,2.784.007,3.806,0,.244-.071.326-.318.319-.609-.016-1.219-.014-1.829,0-.218,0-.291-.066-.29-.286C27.241,53.7,27.235,52.012,27.236,51.068Z" transform="translate(-2.008 -3.027)" fill="#fff"/>
      <g id="Group_210" data-name="Group 210" transform="translate(16.025 15.992)">
        <path id="Path_701" data-name="Path 701" d="M22.145,29.3a.459.459,0,0,1-.5.08c-1.932-.617-2.155-.648-4.088-1.263-.395-.125-.79-.249-1.184-.377-.155-.05-.335-.083-.346-.295s.156-.251.292-.321l7.864-4.02,12.336-6.312c.477-.244.955-.484,1.432-.726.127-.064.255-.124.385-.013s.086.23.055.359q-.736,3.031-1.47,6.063Q35.659,27.67,34.4,32.863c-.1.414-.169.453-.576.329l-7.7-2.347c-.05-.016-.1-.03-.149-.048-.28-.1-.334-.257-.145-.486.433-.526,0-.021.436-.542l6.032-6.4Z" transform="translate(-16.025 -15.992)" fill="none" stroke="#fff" stroke-linecap="round" stroke-linejoin="round" stroke-width="2"/>
        <g id="Path_702" data-name="Path 702" transform="translate(-18.14 -19.445)" fill="none" stroke-linecap="round" stroke-linejoin="round">
          <path d="M27.825,37.6c0-.648,0-1.294,0-1.941,0-.369.117-.459.458-.355q.99.3,1.977.609c.352.109.4.239.206.547q-1.017,1.607-2.036,3.213c-.037.058-.074.117-.113.173a.26.26,0,0,1-.49-.15q0-.751,0-1.5Z" stroke="none"/>
          <path d="M 28.06551933288574 35.26162338256836 C 28.12492942810059 35.26162338256836 28.19706153869629 35.27560424804688 28.28382110595703 35.30215072631836 C 28.94372940063477 35.50324249267578 29.60283088684082 35.70515060424805 30.26110076904297 35.91118240356445 C 30.61322021484375 36.02034378051758 30.66082000732422 36.15002059936523 30.46712112426758 36.45782089233398 C 29.78915023803711 37.5289421081543 29.10952949523926 38.60007095336914 28.43074035644531 39.67120361328125 C 28.3938102722168 39.7294807434082 28.35687065124512 39.78776168823242 28.31747055053711 39.84439086914063 C 28.25745010375977 39.92986297607422 28.18341255187988 39.98888778686523 28.08755683898926 39.98888778686523 C 28.06281852722168 39.98888778686523 28.03664207458496 39.98496246337891 28.00885963439941 39.97654342651367 C 27.87261009216309 39.9346809387207 27.82827949523926 39.82469177246094 27.82746124267578 39.69419097900391 C 27.82582092285156 39.19350051879883 27.82582092285156 38.69365310668945 27.82500076293945 38.19296264648438 C 27.82500076293945 37.99434280395508 27.82500076293945 37.79571151733398 27.82500076293945 37.59789276123047 C 27.82582092285156 36.95029067993164 27.82418060302734 36.30351257324219 27.82582092285156 35.65673065185547 C 27.8270435333252 35.38144683837891 27.89167594909668 35.26162338256836 28.06551933288574 35.26162338256836 Z" stroke="none" fill="#fff"/>
        </g>
      </g>
    </g>
  </g>
</svg>
