<svg width="48" height="48" viewBox="0 0 48 48" fill="none" xmlns="http://www.w3.org/2000/svg">
<path d="M45.8329 37.9106V13.0781H2.16797V37.9106H45.8329ZM22.6804 31.3947C22.9507 31.8493 23.0372 32.3901 22.9218 32.9065C22.8066 33.4227 22.4983 33.8753 22.0601 34.1716C21.6221 34.4681 21.0872 34.5857 20.5652 34.5008C20.0431 34.4159 19.5733 34.1343 19.2519 33.7143C18.9305 33.2941 18.7818 32.7672 18.8364 32.2409C18.8908 31.7148 19.1442 31.2294 19.5449 30.8842C19.4496 30.746 19.3834 30.5895 19.351 30.4245L17.0991 17.6079C17.0868 17.5409 17.0292 17.4916 16.9612 17.4903H14.5049C14.2229 17.4903 13.9944 17.2618 13.9944 16.9797C13.9944 16.6977 14.2229 16.4692 14.5049 16.4692H16.9612C17.2344 16.4687 17.499 16.5648 17.7082 16.7403C17.9177 16.916 18.0581 17.16 18.1049 17.4292L18.4114 19.1654L32.8319 19.1652C33.1799 19.1652 33.5096 19.3205 33.7308 19.5892C33.9556 19.8565 34.0509 20.2098 33.9912 20.5543L32.735 27.7028C32.687 27.9755 32.5445 28.2227 32.3326 28.4012C32.1208 28.5796 31.8529 28.6776 31.576 28.6781H20.0868L20.3574 30.21C20.3699 30.2789 20.4305 30.3287 20.5004 30.3276H30.5296C31.1369 30.3686 31.6959 30.6731 32.0596 31.1612C32.4236 31.6492 32.5557 32.2719 32.4215 32.8655C32.2873 33.4593 31.9 33.9648 31.3616 34.2487C30.8232 34.5329 30.1876 34.5672 29.6216 34.343C29.0559 34.1188 28.6163 33.6581 28.4186 33.0825C28.2212 32.5066 28.2852 31.8733 28.5941 31.3489L22.6804 31.3947Z" fill="#E7ECF8"/>
<path d="M31.7306 27.5428L32.9869 20.3942H32.9866C32.9941 20.3468 32.9812 20.2986 32.951 20.2613C32.9218 20.2265 32.8789 20.2061 32.8334 20.2051H18.5918L19.9145 27.6759H31.5778C31.6533 27.6724 31.7168 27.6175 31.731 27.5431M22.8153 26.5217H22.8151C22.5416 26.5892 22.2652 26.4223 22.1971 26.1491L21.1758 21.9976H21.176C21.1096 21.7225 21.2789 21.4458 21.5537 21.3797C21.8288 21.3135 22.1055 21.4825 22.1716 21.7576L23.193 25.9091C23.2573 26.1807 23.0912 26.4539 22.8202 26.5217M26.4303 26.5217H26.313C26.0727 26.5287 25.86 26.3672 25.8025 26.1336L24.7811 21.9821V21.9823C24.7168 21.7105 24.8829 21.4372 25.1537 21.3695C25.4274 21.302 25.7039 21.4688 25.7716 21.7423L26.793 25.8938V25.8936C26.857 26.1671 26.688 26.4408 26.415 26.5064M30.0303 26.5064C29.7569 26.5739 29.4804 26.4071 29.4127 26.1336L28.3913 21.9821V21.9823C28.3273 21.7088 28.496 21.4351 28.7692 21.3695C29.0408 21.3052 29.3141 21.4713 29.3818 21.7423L30.4032 25.8938V25.8936C30.4675 26.1654 30.3014 26.4384 30.0303 26.5064Z" fill="#0755E9"/>
<path d="M27.2366 40.1355L27.9874 38.9355H20.0215L20.7723 40.1355H27.2366Z" fill="#0755E9"/>
<path d="M45.8329 7.67999C45.831 7.22463 45.6472 6.78883 45.3223 6.46984C45.0025 6.16636 44.5782 5.99814 44.1376 6.00002H3.85812C3.41133 5.99868 2.98225 6.17493 2.66511 6.48992C2.34824 6.80493 2.16931 7.23296 2.16797 7.67998V12.0511L45.8329 12.0509L45.8329 7.67999ZM5.90102 10.2586C5.57557 10.2546 5.26486 10.1217 5.03715 9.88924C4.80921 9.65674 4.68304 9.34335 4.68572 9.0179C4.6884 8.69246 4.81992 8.38121 5.05135 8.15246C5.28304 7.92372 5.5959 7.79622 5.92138 7.79755C6.24683 7.79889 6.55861 7.92907 6.78819 8.15969C7.01802 8.39032 7.14685 8.70237 7.14685 9.02808C7.14551 9.35406 7.0156 9.66612 6.78498 9.89674C6.55462 10.1271 6.2423 10.2573 5.91632 10.2586M10.599 10.2586C10.2725 10.2586 9.95935 10.129 9.72875 9.89808C9.49786 9.66745 9.36822 9.35433 9.36822 9.02805C9.36822 8.70153 9.49786 8.38841 9.72875 8.15781C9.95938 7.92691 10.2725 7.79727 10.599 7.79727C10.9252 7.79727 11.2384 7.92691 11.469 8.15781C11.6999 8.38843 11.8296 8.70156 11.8296 9.02805C11.8282 9.35403 11.698 9.66608 11.4677 9.89671C11.2371 10.1271 10.9247 10.2573 10.599 10.2586ZM15.2817 10.2586H15.2814C14.9552 10.2586 14.6421 10.1289 14.4112 9.89805C14.1806 9.66742 14.0509 9.35429 14.0509 9.02801C14.0509 8.7015 14.1806 8.38837 14.4112 8.15777C14.6421 7.92688 14.9552 7.79724 15.2814 7.79724C15.6079 7.79724 15.9208 7.92688 16.1517 8.15777C16.3823 8.3884 16.5119 8.70152 16.5119 9.02801C16.5106 9.35641 16.3785 9.67114 16.1447 9.90202C15.9109 10.1329 15.5948 10.2612 15.2662 10.2585M42.105 10.2585H21.6337C21.2121 10.2315 20.8333 9.99068 20.63 9.62023C20.4267 9.24979 20.4267 8.80088 20.63 8.43038C20.8333 8.05994 21.2121 7.81913 21.6337 7.79208H42.105C42.5269 7.81913 42.9054 8.05993 43.109 8.43038C43.3123 8.80083 43.3123 9.24974 43.109 9.62023C42.9054 9.99068 42.5269 10.2315 42.105 10.2585Z" fill="#0755E9"/>
<path d="M1.64434 38.9336H0V41.3234C0 41.6743 0.139282 42.0107 0.387319 42.2588C0.635355 42.5069 0.97178 42.6461 1.3227 42.6461H46.6827C47.0325 42.6448 47.3676 42.5047 47.6146 42.2569C47.8613 42.0089 48 41.6733 48 41.3235V38.9336H29.1881L27.9525 40.915H27.9522C27.8587 41.0647 27.6948 41.1553 27.5183 41.155H20.4815C20.305 41.1553 20.141 41.0647 20.0476 40.915L18.8117 38.9388H1.64416" fill="#0755E9"/>
</svg>
