<svg width="48" height="48" viewBox="0 0 48 48" fill="none" xmlns="http://www.w3.org/2000/svg">
<path d="M3.85318 10.0802H7.8355C8.31304 10.0802 8.68813 9.70507 8.68813 9.22754V8.09332H15.9111C10.8631 10.4896 7.11105 15.2224 6.07915 20.8764C4.56128 21.1409 3.40128 22.4711 3.40128 24.0657C3.40128 25.8567 4.85959 27.306 6.64161 27.306C8.43258 27.306 9.88193 25.8563 9.88193 24.0657C9.88193 22.6756 9.01217 21.4988 7.78406 21.0384C9.01212 14.6599 14.0687 9.61119 20.4393 8.38322C20.9 9.61129 22.0853 10.4811 23.4669 10.4811C24.857 10.4811 26.0423 9.61133 26.5027 8.38322C32.8727 9.60279 37.93 14.6679 39.158 21.0384C37.9299 21.4988 37.0515 22.6759 37.0515 24.0657C37.0515 25.8567 38.5098 27.306 40.3004 27.306C42.0828 27.306 43.5407 25.8563 43.5407 24.0657C43.5407 22.4711 42.3812 21.1409 40.8629 20.8764C39.8311 15.2228 36.079 10.4899 31.0217 8.09332H38.2448V9.22754C38.2448 9.70508 38.6284 10.0802 39.0974 10.0802H43.0804C43.558 10.0802 43.9331 9.70507 43.9331 9.22754V5.24523C43.9331 4.77626 43.558 4.39259 43.0804 4.39259H39.0981C38.6291 4.39259 38.2455 4.77626 38.2455 5.24523V6.38805L26.5962 6.38769C26.2297 5.01509 24.9587 4 23.4665 4C21.9743 4 20.712 5.01463 20.3454 6.38769H8.68795V5.24524C8.68795 4.77627 8.31284 4.3926 7.83532 4.3926L3.85264 4.39225C3.38367 4.39225 3 4.77591 3 5.24488V9.2272C3 9.70509 3.38367 10.0802 3.85264 10.0802L3.85318 10.0802Z" fill="#0755E9"/>
<path d="M14.5366 26.6422L18.829 34.1625H28.1265L32.4189 26.6422C32.5724 26.3692 32.5638 26.0283 32.3932 25.7553L24.3301 13.1777V21.3914C25.4226 21.7526 26.2188 22.7715 26.2188 23.9843C26.2188 25.4958 24.989 26.7257 23.4775 26.7257C21.966 26.7257 20.7361 25.4958 20.7361 23.9843C20.7361 22.7716 21.5323 21.7526 22.6248 21.3914V13.1787L14.5624 25.7545C14.3918 26.0275 14.3833 26.3683 14.5367 26.6414L14.5366 26.6422Z" fill="#0755E9"/>
<path d="M18.8184 44.1473C18.8184 44.6163 19.202 44.9999 19.671 44.9999H27.2691C27.738 44.9999 28.1217 44.6163 28.1217 44.1473V35.8672H18.8187L18.8184 44.1473Z" fill="#E7ECF8"/>
</svg>
