<svg width="48" height="48" viewBox="0 0 48 48" fill="none" xmlns="http://www.w3.org/2000/svg">
<rect x="1" y="3.83984" width="47" height="26" fill="#E7ECF8"/>
<path d="M21.3444 23.1676C21.4376 23.2032 21.5325 23.22 21.6267 23.22C21.9434 23.22 22.2426 23.0276 22.3625 22.7138L27.109 10.3429C27.2652 9.93671 27.0617 9.4803 26.6556 9.32446C26.2498 9.16793 25.793 9.37139 25.6371 9.77756L20.8906 22.1485C20.7348 22.5554 20.9382 23.0114 21.3444 23.1672L21.3444 23.1676ZM28.7293 23.087C28.8818 23.2303 29.0761 23.3018 29.2708 23.3018C29.4801 23.3018 29.6891 23.2193 29.8441 23.0547L35.7605 16.7886C36.0476 16.4854 36.0476 16.0106 35.7605 15.7064L29.8441 9.43659C29.5457 9.11913 29.0468 9.10483 28.7301 9.40397C28.4134 9.70237 28.3991 10.2017 28.6975 10.518L34.1032 16.246L28.6975 21.9725C28.3991 22.2892 28.413 22.7878 28.7293 23.087ZM18.1547 23.0551C18.3097 23.2197 18.5183 23.3025 18.728 23.3025C18.922 23.3025 19.1162 23.231 19.2687 23.0877C19.5855 22.7893 19.5998 22.29 19.3014 21.9736L13.8956 16.2453L19.3014 10.5207C19.5998 10.2043 19.5858 9.705 19.2695 9.40661C18.9531 9.1082 18.4535 9.12214 18.1547 9.4385L12.2379 15.7028C11.9516 16.0067 11.9509 16.481 12.2379 16.7853L18.1547 23.0551ZM46.6851 3H1.31386C0.589471 3 0 3.58947 0 4.31386V36.5474C0 37.2722 0.589471 37.8613 1.31386 37.8613H20.4586L20.169 40.9715C20.1558 41.1665 19.9432 42.8734 16.7143 42.8734C16.2792 42.8734 15.9262 43.226 15.9262 43.6615C15.9262 44.0967 16.2792 44.4497 16.7143 44.4497H31.2859C31.7211 44.4497 32.0741 44.0967 32.0741 43.6615C32.0741 43.226 31.7211 42.8734 31.2859 42.8734C28.0567 42.8734 27.844 41.1665 27.8282 40.9378L27.5412 37.8614H46.1604C46.6318 37.8614 48 37.5381 48 36.5475V4.31395C47.9996 3.58994 47.4105 3.00009 46.6858 3.00009L46.6851 3ZM46.4222 29.7154H1.57655V4.57663H46.4222V29.7154Z" fill="#0755E9"/>
</svg>
