<svg width="48" height="48" viewBox="0 0 48 48" fill="none" xmlns="http://www.w3.org/2000/svg">
<path d="M24.5451 4C26.3455 4.57999 27.9541 5.5998 29.6389 6.43818C32.6405 7.93352 35.621 9.47284 38.6068 11.0012C40.3021 11.8698 41.1117 13.3541 41.109 15.2728C41.1064 17.1777 40.3021 18.6593 38.62 19.5197C34.341 21.7077 30.0515 23.882 25.7726 26.0728C24.6003 26.672 23.4491 26.672 22.2742 26.0728C17.9952 23.8847 13.7084 21.7077 9.42679 19.5197C7.75515 18.6648 6.9535 17.1942 6.93773 15.3058C6.92196 13.4036 7.70521 11.8918 9.38211 11.0314C13.7189 8.80488 18.0662 6.60035 22.4109 4.39857C22.7552 4.22265 23.1389 4.13194 23.5043 4C23.8512 4 24.1982 4 24.5451 4Z" fill="#2569E6"/>
<path d="M42.056 34.0227C42.0323 34.0942 42.0008 34.1656 41.9824 34.2399C41.8089 34.8941 41.4567 35.3971 40.8811 35.727C35.8636 38.6022 30.8513 41.4829 25.8337 44.3499C24.6536 45.0234 23.4393 45.0399 22.2565 44.3664C17.2153 41.4912 12.182 38.6022 7.15136 35.7077C5.88449 34.9793 5.61377 33.1376 6.58626 32.0161C7.21444 31.2904 8.12911 31.1392 8.98332 31.6258C11.977 33.3383 14.9681 35.0562 17.9618 36.7715C19.87 37.8655 21.7834 38.9568 23.6864 40.0618C23.9308 40.2047 24.1122 40.2157 24.3645 40.07C29.2138 37.2773 34.0815 34.5175 38.9151 31.6972C40.3764 30.8424 41.7695 31.7632 42.006 33.1513C42.0139 33.1926 42.0402 33.2338 42.0586 33.2723V34.02L42.056 34.0227Z" fill="#E7ECF8"/>
<path d="M42.0582 24.8323C41.9347 25.1429 41.8611 25.492 41.6771 25.7531C41.4642 26.0555 41.1908 26.3496 40.8807 26.5283C35.8737 29.42 30.8561 32.2952 25.8386 35.165C24.6585 35.8384 23.4442 35.8577 22.2614 35.1842C17.2202 32.309 12.1895 29.4173 7.15622 26.5283C6.35194 26.0665 5.89461 25.1291 6.02077 24.1836C6.14693 23.2352 6.59638 22.526 7.51105 22.2347C8.01306 22.0752 8.49405 22.1605 8.95402 22.4243C11.9556 24.1478 14.9572 25.8686 17.9588 27.5893C19.8775 28.6888 21.7988 29.7856 23.7123 30.8961C23.9541 31.0363 24.1275 31.0225 24.3615 30.8879C29.2108 28.0978 34.0785 25.3381 38.9121 22.515C40.3866 21.6547 41.7691 22.5893 42.0056 23.9637C42.0135 24.0049 42.0398 24.0434 42.0582 24.0819V24.8295V24.8323Z" fill="#E7ECF8"/>
</svg>
