<svg xmlns="http://www.w3.org/2000/svg" width="60" height="60" viewBox="0 0 60 60">
  <g id="Global_Delivery_Model" data-name="Global Delivery Model" transform="translate(-853 -338)">
    <rect id="Rectangle_140" data-name="Rectangle 140" width="60" height="60" rx="30" transform="translate(853 338)" fill="#4fd6e5"/>
    <g id="Group_194" data-name="Group 194" transform="translate(1314.827 337.751)">
      <path id="Path_627" data-name="Path 627" d="M-429.5,13.455a17.161,17.161,0,0,1,5.565.948l1.562-.682a18.009,18.009,0,0,0-23.169,8.37,17.884,17.884,0,0,0-1.127,2.753l1.173.3A16.839,16.839,0,0,1-429.5,13.455Z" transform="translate(-1.248)" fill="#fff"/>
      <path id="Path_628" data-name="Path 628" d="M-412.707,37.188a16.781,16.781,0,0,1-6.49,11.88,7.51,7.51,0,0,0-3.6-1.3,9.77,9.77,0,0,0-2.4.182c-.766.136-1.205.2-1.433-.015a7.319,7.319,0,0,1,.121-2.525l.068-.584a15.253,15.253,0,0,1,.849-3.563,4.793,4.793,0,0,0,.326-3.275,6.063,6.063,0,0,0-2.487-2.934c-.455.174-.91.341-1.349.5,1.569,1.145,2.388,1.827,2.691,2.79a3.78,3.78,0,0,1-.318,2.54,16.421,16.421,0,0,0-.91,3.821l-.061.576c-.265,2.343-.334,2.964.243,3.518.675.644,1.547.493,2.464.334a8.546,8.546,0,0,1,2.108-.167,6.138,6.138,0,0,1,2.623.864,16.774,16.774,0,0,1-6.391,2.5,3.209,3.209,0,0,0-1.258-2.062,3.155,3.155,0,0,0-2.206-.364,3.344,3.344,0,0,1-2.047-.265,2.189,2.189,0,0,1-.932-.94,3.939,3.939,0,0,0-1.44-1.448,5.045,5.045,0,0,0-5.466.038,3.954,3.954,0,0,0-.788.842,16.808,16.808,0,0,1-4.481-6.755l-1.157.315A17.892,17.892,0,0,0-437.6,51.8a18,18,0,0,0,24.2-7.885,18.043,18.043,0,0,0,1.941-7.46Zm-16.732,15.375a16.738,16.738,0,0,1-10.44-3.647,2.724,2.724,0,0,1,.607-.675,3.874,3.874,0,0,1,4.132.038,2.754,2.754,0,0,1,1.031,1.054,3.362,3.362,0,0,0,1.395,1.365,4.471,4.471,0,0,0,2.714.394,2.067,2.067,0,0,1,1.425.174,1.98,1.98,0,0,1,.735,1.221C-428.37,52.533-428.9,52.563-429.439,52.563Z" transform="translate(-1.306 -5.515)" fill="#fff"/>
      <path id="Path_629" data-name="Path 629" d="M-434.3,42.315a2.935,2.935,0,0,0,1.44,2.32,3.718,3.718,0,0,0,2.108.842,2.332,2.332,0,0,0,.879-.174,2.664,2.664,0,0,0,1.569-2.327,2.769,2.769,0,0,0-.8-2,3.131,3.131,0,0,0-2.191-1.023A2.9,2.9,0,0,0-434.3,42.315Zm4.8.614a1.479,1.479,0,0,1-.834,1.266c-.7.3-1.478-.281-1.812-.531-.3-.212-.986-.72-.955-1.281.038-.622.955-1.259,1.782-1.228a1.993,1.993,0,0,1,1.349.637A1.607,1.607,0,0,1-429.5,42.929Z" transform="translate(-4.238 -6.7)" fill="#fff"/>
      <path id="Path_630" data-name="Path 630" d="M-440.462,26.517l1.125.416a13.082,13.082,0,0,1,2.868-4.584,13.835,13.835,0,0,1,8.622-4.02l-.111-1.2a15.039,15.039,0,0,0-9.373,4.379A14.243,14.243,0,0,0-440.462,26.517Z" transform="translate(-2.749 -1.181)" fill="#fff"/>
      <path id="Path_631" data-name="Path 631" d="M-422.272,29.224c.705,1.53,1.334,2.9,1.287,2.822-.105-.177,6.115-6.506,6.115-6.506l-9.231-.277s.556,1.2,1.2,2.591c-24.339,9.749-27.056,7.895-27.352,7.426-.384-.608,1.083-2.677,2.651-4.12a.757.757,0,0,0,.044-1.07.757.757,0,0,0-1.07-.045c-1,.917-4.155,4.064-2.908,6.044.4.632,1.188,1.149,3.057,1.149,3.485,0,10.723-1.8,26.172-7.986A.358.358,0,0,0-422.272,29.224Z" transform="translate(0 -3.148)" fill="#fff"/>
    </g>
  </g>
</svg>
