<svg xmlns="http://www.w3.org/2000/svg" width="60" height="60" viewBox="0 0 60 60">
  <g id="Industry_Foresight" data-name="Industry Foresight" transform="translate(-932 -336)">
    <rect id="Rectangle_143" data-name="Rectangle 143" width="60" height="60" rx="30" transform="translate(932 336)" fill="#4fd6e5"/>
    <path id="Path_699" data-name="Path 699" d="M28.3,25.534a5.056,5.056,0,0,1,3.516-.009c.32-.664.631-1.293.922-1.93a.926.926,0,0,0,.03-.4c-.041-1.023-.08-2.046-.132-3.068a3.513,3.513,0,0,1,1.6-3.215,4.871,4.871,0,0,1,4.684-.567A3.5,3.5,0,0,1,40.985,18.4c.4.986.65,2.031.981,3.046a1.086,1.086,0,0,0,.29.49,7.8,7.8,0,0,1,2.624,4.137c1,3.841,2.031,7.675,2.98,11.529a6.5,6.5,0,0,1-2.126,6.683,8.224,8.224,0,0,1-11.349-.359,6.933,6.933,0,0,1-1.769-3.182c-.172-.674-.353-1.347-.556-2.012a1.347,1.347,0,0,0-1.553-1.164c-.439,0-.88.01-1.318.04a1.059,1.059,0,0,0-.948.719,9.794,9.794,0,0,0-.371,1.131,10.721,10.721,0,0,1-1.264,3.4,7.687,7.687,0,0,1-5.569,3.424,7.842,7.842,0,0,1-6.845-2.216,6.626,6.626,0,0,1-1.841-6.807c.952-3.648,1.872-7.305,2.854-10.945a7.624,7.624,0,0,1,2.327-4.072,2.47,2.47,0,0,0,.812-1.382,17.629,17.629,0,0,1,.8-2.438c1.51-3.452,6.292-2.878,7.8-.455a3.409,3.409,0,0,1,.564,1.978c-.045,1.059-.1,2.119-.125,3.179a1.82,1.82,0,0,0,.171.693C27.783,24.384,28.035,24.933,28.3,25.534ZM40.16,20.985l.107-.085c-.265-.678-.5-1.371-.8-2.03a1.985,1.985,0,0,0-1.251-1.087,3.491,3.491,0,0,0-2.872.285,2.129,2.129,0,0,0-1.15,2.125c.074,1.133.117,2.269.138,3.4a1.384,1.384,0,0,1-.224.755,3.646,3.646,0,0,0-.679,2.281q.134,2.974.242,5.949a1.419,1.419,0,0,1-.086.58.74.74,0,0,1-.824.416.805.805,0,0,1-.636-.8c-.077-1.709-.157-3.417-.218-5.126a.5.5,0,0,0-.354-.522,3.825,3.825,0,0,0-2.963,0,.5.5,0,0,0-.35.524c-.062,1.709-.141,3.417-.219,5.125a.786.786,0,0,1-1,.784.808.808,0,0,1-.551-.9c.077-1.971.14-3.943.247-5.912a3.618,3.618,0,0,0-1.523-3.221,5.452,5.452,0,0,0-3.32-1.112c-.568-.012-.9-.324-.9-.811s.369-.815.95-.8a7.251,7.251,0,0,1,3.561,1.014c.112.066.228.125.379.208.032-.692.058-1.336.093-1.979a1.986,1.986,0,0,0-.7-1.654,3,3,0,0,0-4.929,1.257c-.3.868-.476,1.779-.756,2.654a2.135,2.135,0,0,1-.508.734,9.445,9.445,0,0,0-1.31,1.381,10.549,10.549,0,0,0-1.056,2.45C16.083,29,15.562,31.151,15.008,33.3c-.022.084-.028.172-.047.293a8.139,8.139,0,0,1,12.35,3.254,4.593,4.593,0,0,1,5.529,0,7.728,7.728,0,0,1,5.379-4.622,8.33,8.33,0,0,1,6.982,1.39c-.032-.153-.046-.236-.067-.318-.516-1.988-1.042-3.973-1.546-5.963a10.353,10.353,0,0,0-1.063-2.775A4.044,4.044,0,0,0,39.5,22.49a6.7,6.7,0,0,0-2.939.191.765.765,0,0,1-.989-.522.794.794,0,0,1,.539-1c.172-.06.351-.106.529-.148A8.079,8.079,0,0,1,40.16,20.985Zm-.5,23.788a7.187,7.187,0,0,0,4.46-1.2,5.189,5.189,0,0,0,.666-8.226,6.772,6.772,0,0,0-8.988-.083,5.135,5.135,0,0,0-.059,7.789A6.109,6.109,0,0,0,39.657,44.773Zm-19.924,0a6.721,6.721,0,0,0,4.5-1.565,5.143,5.143,0,0,0,.615-7.434,6.721,6.721,0,0,0-9.792-.131,5.108,5.108,0,0,0,.2,7.271A6.337,6.337,0,0,0,19.733,44.776Z" transform="translate(931.921 335.008)" fill="#fff"/>
  </g>
</svg>
