<svg xmlns="http://www.w3.org/2000/svg" width="60" height="60" viewBox="0 0 60 60">
  <g id="Innovation_Driven" data-name="Innovation Driven" transform="translate(-1408 -336)">
    <rect id="Rectangle_167" data-name="Rectangle 167" width="60" height="60" rx="30" transform="translate(1408 336)" fill="#4fd6e5"/>
    <g id="Group_193" data-name="Group 193" transform="translate(1039.962 452.204)">
      <path id="Path_624" data-name="Path 624" d="M407.312-99.344a.527.527,0,0,0-.737-.117.527.527,0,0,0-.117.736,10.618,10.618,0,0,1,2.032,6.275,11.316,11.316,0,0,1-1.865,6.19c-1.8,2.764-3.007,4.8-3.285,7.745a.824.824,0,0,1-.6.72.408.408,0,0,0-.062.015.819.819,0,0,1-.161.016h-9.461a.819.819,0,0,1-.161-.016.486.486,0,0,0-.063-.015.824.824,0,0,1-.595-.72c-.279-2.948-1.482-4.981-3.285-7.745a11.311,11.311,0,0,1-1.865-6.19,10.711,10.711,0,0,1,10.7-10.7,10.662,10.662,0,0,1,7.3,2.881.527.527,0,0,0,.745-.025.527.527,0,0,0-.025-.745,11.712,11.712,0,0,0-8.025-3.166A11.767,11.767,0,0,0,386.038-92.45a12.36,12.36,0,0,0,2.036,6.766c1.718,2.633,2.863,4.561,3.119,7.268a1.878,1.878,0,0,0,1.026,1.509v4.949a1.538,1.538,0,0,0,.993,1.436,2.42,2.42,0,0,0,2.415,2.318h4.332a2.42,2.42,0,0,0,2.415-2.318,1.537,1.537,0,0,0,.993-1.436v-4.949a1.876,1.876,0,0,0,1.026-1.509c.256-2.706,1.4-4.635,3.119-7.267a12.364,12.364,0,0,0,2.036-6.767A11.665,11.665,0,0,0,407.312-99.344ZM396.578-74.66h5.732v.962h-9.036v-.962h1.2a.527.527,0,0,0,.527-.527.527.527,0,0,0-.527-.527h-1.2v-.994h9.036v.994h-5.732a.527.527,0,0,0-.527.527A.528.528,0,0,0,396.578-74.66Zm5.278,3.181h-8.129a.479.479,0,0,1-.453-.478v-.686h9.036v.686A.481.481,0,0,1,401.855-71.479Zm-1.9,2.22h-4.332a1.364,1.364,0,0,1-1.347-1.165H401.3A1.364,1.364,0,0,1,399.957-69.259Z" transform="translate(0 0)" fill="#fff"/>
      <path id="Path_625" data-name="Path 625" d="M405.785-86.515a.155.155,0,0,1,.151-.11h.427a1.215,1.215,0,0,0,1.213-1.213v-.782a1.215,1.215,0,0,0-1.213-1.213h-.457a.156.156,0,0,1-.15-.107,6.082,6.082,0,0,0-.48-1.144.157.157,0,0,1,.028-.186l.327-.327a1.206,1.206,0,0,0,.356-.858,1.206,1.206,0,0,0-.356-.858l-.553-.553a1.2,1.2,0,0,0-.857-.355,1.207,1.207,0,0,0-.858.355l-.327.328a.157.157,0,0,1-.185.028,6.066,6.066,0,0,0-1.144-.48.157.157,0,0,1-.107-.15V-94.6a1.215,1.215,0,0,0-1.213-1.214H399.6a1.215,1.215,0,0,0-1.213,1.214v.427a.156.156,0,0,1-.111.151,6.051,6.051,0,0,0-1.18.474.156.156,0,0,1-.182-.029l-.292-.292a1.207,1.207,0,0,0-.859-.355,1.2,1.2,0,0,0-.857.355l-.553.553a1.206,1.206,0,0,0-.356.858,1.206,1.206,0,0,0,.356.858l.262.262a.155.155,0,0,1,.028.186,6.079,6.079,0,0,0-.516,1.207.158.158,0,0,1-.154.109h-.351a1.215,1.215,0,0,0-1.213,1.213v.782a1.215,1.215,0,0,0,1.213,1.213h.324a.155.155,0,0,1,.152.109,6.03,6.03,0,0,0,.511,1.247.156.156,0,0,1-.03.183l-.226.226A1.206,1.206,0,0,0,394-84a1.206,1.206,0,0,0,.356.858l.552.553a1.207,1.207,0,0,0,.858.355,1.2,1.2,0,0,0,.858-.355l.226-.226a.153.153,0,0,1,.182-.03,6.028,6.028,0,0,0,1.247.51.156.156,0,0,1,.109.152v.325a1.214,1.214,0,0,0,1.213,1.213h.781a1.214,1.214,0,0,0,1.213-1.213v-.352a.159.159,0,0,1,.109-.154,6.047,6.047,0,0,0,1.208-.516.157.157,0,0,1,.186.028l.262.262a1.207,1.207,0,0,0,.858.355,1.2,1.2,0,0,0,.857-.355l.553-.553a1.206,1.206,0,0,0,.356-.858,1.206,1.206,0,0,0-.356-.858l-.292-.292a.157.157,0,0,1-.03-.183A6.012,6.012,0,0,0,405.785-86.515ZM404.77-86.8a5.013,5.013,0,0,1-.391.974,1.2,1.2,0,0,0,.215,1.422l.292.292a.158.158,0,0,1,0,.224l-.553.553a.16.16,0,0,1-.224,0l-.262-.262a1.214,1.214,0,0,0-1.448-.2,5,5,0,0,1-1,.425,1.222,1.222,0,0,0-.857,1.163v.351a.159.159,0,0,1-.158.159H399.6a.159.159,0,0,1-.158-.159v-.324a1.216,1.216,0,0,0-.876-1.167,4.963,4.963,0,0,1-1.029-.421,1.2,1.2,0,0,0-.573-.145,1.219,1.219,0,0,0-.861.355l-.226.226a.156.156,0,0,1-.113.046.155.155,0,0,1-.112-.046l-.553-.553a.16.16,0,0,1,0-.224l.226-.226a1.215,1.215,0,0,0,.21-1.434,5,5,0,0,1-.421-1.029,1.215,1.215,0,0,0-1.167-.876h-.324a.158.158,0,0,1-.158-.158v-.781a.158.158,0,0,1,.158-.158h.351a1.222,1.222,0,0,0,1.163-.857,5.013,5.013,0,0,1,.425-1,1.214,1.214,0,0,0-.2-1.448l-.262-.262a.16.16,0,0,1,0-.224l.553-.553a.16.16,0,0,1,.224,0l.292.292a1.2,1.2,0,0,0,1.423.215A4.991,4.991,0,0,1,398.57-93a1.215,1.215,0,0,0,.876-1.166V-94.6a.159.159,0,0,1,.159-.158h.781a.158.158,0,0,1,.158.158v.457a1.2,1.2,0,0,0,.857,1.16,5,5,0,0,1,.944.4,1.217,1.217,0,0,0,1.437-.208l.327-.328a.16.16,0,0,1,.224,0l.552.553a.158.158,0,0,1,0,.224l-.327.327a1.217,1.217,0,0,0-.208,1.437,5,5,0,0,1,.4.944,1.2,1.2,0,0,0,1.159.856h.457a.159.159,0,0,1,.158.159v.781a.158.158,0,0,1-.158.158h-.427A1.216,1.216,0,0,0,404.77-86.8Z" transform="translate(-2.204 -2.901)" fill="#fff"/>
      <path id="Path_626" data-name="Path 626" d="M401.968-90.1a3.851,3.851,0,0,0-3.846,3.846,3.851,3.851,0,0,0,3.846,3.847,3.851,3.851,0,0,0,3.846-3.847A3.851,3.851,0,0,0,401.968-90.1Zm0,6.638a2.8,2.8,0,0,1-2.791-2.792,2.8,2.8,0,0,1,2.791-2.791,2.8,2.8,0,0,1,2.791,2.791A2.8,2.8,0,0,1,401.968-83.465Z" transform="translate(-4.177 -4.874)" fill="#fff"/>
    </g>
  </g>
</svg>
