<svg xmlns="http://www.w3.org/2000/svg" width="60" height="60" viewBox="0 0 60 60">
  <g id="Measurable_Business_Societal_Value" data-name="Measurable Business &amp; Societal Value" transform="translate(-1252 -336)">
    <rect id="Rectangle_153" data-name="Rectangle 153" width="60" height="60" rx="30" transform="translate(1252 336)" fill="#4fd6e5"/>
    <path id="Path_654" data-name="Path 654" d="M43.845,15.516h-8.9a.655.655,0,0,0-.655.655v8.9a.655.655,0,0,0,.655.655h3.987V29.2H27.151V26.593a.655.655,0,1,0-1.309,0V29.2H14.064V22.455H18.05a.655.655,0,0,0,.655-.655V12.9a.655.655,0,0,0-.655-.655h-8.9A.655.655,0,0,0,8.5,12.9v8.9a.655.655,0,0,0,.655.655h3.6v7.4a.654.654,0,0,0,.655.655H25.842V35.74H22.048a.655.655,0,0,0-.655.655v8.9a.654.654,0,0,0,.655.655h8.9a.654.654,0,0,0,.655-.655v-8.9a.654.654,0,0,0-.655-.655H27.151V30.513h12.44a.654.654,0,0,0,.655-.655V25.721h3.6a.655.655,0,0,0,.655-.655v-8.9A.655.655,0,0,0,43.845,15.516ZM9.809,13.559H17.4v7.587H9.809ZM43.191,24.411H35.6V16.825h7.587Z" transform="translate(1255.5 336.75)" fill="#fff"/>
  </g>
</svg>
