<svg xmlns="http://www.w3.org/2000/svg" width="60" height="60" viewBox="0 0 60 60">
  <g id="Performance_Focused" data-name="Performance Focused" transform="translate(-1172 -336)">
    <rect id="Rectangle_186" data-name="Rectangle 186" width="60" height="60" rx="30" transform="translate(1172 336)" fill="#4fd6e5"/>
    <g id="Group_198" data-name="Group 198" transform="translate(1263.769 335.758)">
      <path id="Path_649" data-name="Path 649" d="M-51.529,41.94h-1.926l-1.05-2.509,2.567-1.284a1.753,1.753,0,0,0,.875-2.158l-3.326-8.927a1.8,1.8,0,0,0-2.276-1.05.057.057,0,0,0-.058.058l-2.451,1.05-.35-.875,1.342-1.576a6.866,6.866,0,0,0,1.692-3.734l1.692-2.042a3.065,3.065,0,0,0-.409-4.318,4.924,4.924,0,0,0-.7-.466,2.9,2.9,0,0,0-1.983-.175l-.175-.525a1.688,1.688,0,0,0-2.218-1.05l-12.311,4.434a1.708,1.708,0,0,0-1.05,2.217v.059l.292.758a3.233,3.233,0,0,0-1.692,3.968,3.318,3.318,0,0,0,2.684,2.159l2.742.292A7.6,7.6,0,0,0-65.824,27.7l1.925.176.35.875a1.739,1.739,0,0,0-.817,1.167l-.409,1.984L-79.4,37.765a.592.592,0,0,0-.333.753h0a.592.592,0,0,0,.774.346l8.525-3.342,1.983,5.951-10.964,4.548a.574.574,0,0,0-.3.763.575.575,0,0,0,.745.3L-61.8,39.956l2.917.35,1.05,3.209-1.4,1.342a1.681,1.681,0,0,0-.409,1.925l.584,1.459,9.686-3.792-.525-1.4A1.65,1.65,0,0,0-51.529,41.94Zm-4.843-26.782a1.933,1.933,0,0,1,.992,2.509,2.047,2.047,0,0,1-.292.467l-.7.875a8.79,8.79,0,0,0-.349-1.692l-.759-2.275A2.33,2.33,0,0,1-56.372,15.158Zm-15.753,9.686A1.952,1.952,0,0,1-73.876,23.5a2.011,2.011,0,0,1,.992-2.509l.817,1.984A8.458,8.458,0,0,0-70.9,24.961Zm6.535,1.751a6.378,6.378,0,0,1-5.368-4.026l-1.517-3.851a.579.579,0,0,1,.292-.759l12.311-4.434a.644.644,0,0,1,.467,0,.6.6,0,0,1,.292.35l1.283,3.851a6.412,6.412,0,0,1-1.225,6.184l-1.809,2.1.525,1.4-2.1.875-.584-1.458Zm-1.75,14.412-1.984-5.952,1.342-.525,1.459,4.434,1.108-.35-1.517-4.551,2.334-.934,1.984,5.893Zm5.893-2.218-2.159-6.476.409-2.159a.617.617,0,0,1,.35-.409l6.535-2.8a.579.579,0,0,1,.759.292l.467,1.225-2.077,1.025a.582.582,0,0,0-.374.728h0a.582.582,0,0,0,.735.377l2.065-1.022.7,1.867-2.026,1.072a.583.583,0,0,0-.368.728.584.584,0,0,0,.74.378l2.062-1.069.7,1.867-2.04.983a.578.578,0,0,0-.372.723.578.578,0,0,0,.737.373l2.083-1.028.292.758a.515.515,0,0,1-.292.7L-57.131,39.2a.739.739,0,0,1-.35.058ZM-54.738,42l-2.1.7-.758-2.217a1.3,1.3,0,0,0,.933-.175l.992-.467Zm-3.676,4.726-.175-.35a.81.81,0,0,1,.117-.642l1.983-1.867,2.509-.817h2.334a.586.586,0,0,1,.584.35l.117.35Z" transform="translate(0 0)" fill="#fff"/>
      <path id="Path_650" data-name="Path 650" d="M-41.669,23.291v.583H-40.5v-.583a2.89,2.89,0,0,1,2.918-2.918V19.206A2.89,2.89,0,0,1-40.5,16.289V15.7h-1.166v.584a2.89,2.89,0,0,1-2.918,2.918v1.166A2.89,2.89,0,0,1-41.669,23.291Zm.584-4.9a4.013,4.013,0,0,0,1.4,1.4,4.021,4.021,0,0,0-1.4,1.4,4.023,4.023,0,0,0-1.4-1.4A4.015,4.015,0,0,0-41.086,18.389Z" transform="translate(-8.518 -0.839)" fill="#fff"/>
      <path id="Path_651" data-name="Path 651" d="M-75.543,38.688v.584h1.166v-.584a2.889,2.889,0,0,1,2.918-2.917V34.6a2.889,2.889,0,0,1-2.918-2.917V31.1h-1.166v.584A2.889,2.889,0,0,1-78.461,34.6v1.167A2.889,2.889,0,0,1-75.543,38.688Zm.584-4.9a4.021,4.021,0,0,0,1.4,1.4,4.021,4.021,0,0,0-1.4,1.4,4.023,4.023,0,0,0-1.4-1.4A4.023,4.023,0,0,0-74.96,33.787Z" transform="translate(-0.317 -4.567)" fill="#fff"/>
      <path id="Path_652" data-name="Path 652" d="M-37.423,31.687V31.1H-38.59v.584A2.889,2.889,0,0,1-41.507,34.6v1.167a2.888,2.888,0,0,1,2.917,2.917v.584h1.167v-.584a2.889,2.889,0,0,1,2.917-2.917V34.6A2.889,2.889,0,0,1-37.423,31.687Zm-.584,4.9a4.023,4.023,0,0,0-1.4-1.4,4.023,4.023,0,0,0,1.4-1.4,4.023,4.023,0,0,0,1.4,1.4A4.023,4.023,0,0,0-38.006,36.588Z" transform="translate(-9.264 -4.567)" fill="#fff"/>
      <path id="Path_653" data-name="Path 653" d="M-55.94,23.559l.816.817c3.21-3.21.233-8.11.058-8.286l-.991.642C-56,16.732-53.373,20.991-55.94,23.559Z" transform="translate(-5.741 -0.932)" fill="#fff"/>
    </g>
  </g>
</svg>
