<svg width="48" height="48" viewBox="0 0 48 48" fill="none" xmlns="http://www.w3.org/2000/svg">
<path d="M42.0006 24.116C41.7602 24.6693 41.3482 24.8683 40.7359 24.8683C34.3382 24.8531 27.9405 24.8588 21.5428 24.8588C20.8237 24.8588 20.4345 24.5746 20.3868 24.027C20.3411 23.4983 20.6901 23.0739 21.2223 23.0208C21.3597 23.0076 21.497 23.0114 21.6343 23.0114C27.9863 23.0114 34.3382 23.0171 40.6901 23C41.3158 23 41.7545 23.1743 42.0006 23.7522V24.1179V24.116Z" fill="#E7ECF8"/>
<path d="M42.0004 12.1028C41.7715 12.6939 41.3309 12.8834 40.7052 12.8815C34.3533 12.8683 28.0013 12.8739 21.6494 12.8721C21.4968 12.8721 21.3423 12.8721 21.1916 12.8512C20.7071 12.7868 20.3867 12.4287 20.3809 11.9588C20.3752 11.4926 20.6899 11.1061 21.1611 11.0284C21.3251 11.0019 21.4968 11.0114 21.6647 11.0114C28.0013 11.0114 34.338 11.0171 40.6747 11C41.2946 11 41.7372 11.1724 42.0004 11.7371V12.1028Z" fill="#E7ECF8"/>
<path d="M11.1018 17.0907C10.1366 17.0907 9.17337 17.0964 8.20818 17.0907C6.85196 17.0774 6.01075 16.2361 6.00503 14.8814C5.9974 12.9961 5.99931 11.1089 6.00503 9.22354C6.00885 7.84792 6.86149 7.00663 8.24442 7.00284C10.1424 6.99905 12.0422 6.99905 13.9402 7.00284C15.3346 7.00474 16.1777 7.83465 16.1815 9.21027C16.1853 11.1126 16.1872 13.0131 16.1815 14.9155C16.1777 16.2343 15.3307 17.0755 13.9974 17.0888C13.0322 17.0983 12.0689 17.0888 11.1037 17.0888L11.1018 17.0907Z" fill="#0755E9"/>
<path d="M11.1025 29.0888C10.1373 29.0888 9.17406 29.0945 8.20887 29.0888C6.85455 29.0774 6.01144 28.2362 6.00572 26.8814C5.99809 24.9942 5.99809 23.1089 6.00572 21.2216C6.00954 19.8479 6.86218 19.0066 8.24511 19.0028C10.1431 18.9991 12.0429 18.9991 13.9409 19.0028C15.3352 19.0047 16.1783 19.8347 16.1822 21.2103C16.186 23.1126 16.1879 25.0131 16.1822 26.9155C16.1783 28.2343 15.3314 29.0755 13.9981 29.0888C13.0329 29.0983 12.0696 29.0888 11.1044 29.0888H11.1025Z" fill="#0755E9"/>
<path d="M11.1025 41.0888C10.1373 41.0888 9.17406 41.0945 8.20887 41.0888C6.85455 41.0774 6.01144 40.2362 6.00572 38.8814C5.99809 36.9942 5.99809 35.1088 6.00572 33.2216C6.00954 31.8479 6.86218 31.0066 8.24511 31.0028C10.1431 30.9991 12.0429 30.9991 13.9409 31.0028C15.3352 31.0047 16.1783 31.8347 16.1822 33.2103C16.186 35.1126 16.1879 37.0131 16.1822 38.9155C16.1783 40.2343 15.3314 41.0755 13.9981 41.0888C13.0329 41.0983 12.0696 41.0888 11.1044 41.0888H11.1025Z" fill="#0755E9"/>
<path d="M30.9333 35.0051C34.0864 35.0051 37.2375 35.0051 40.3906 35.0051C40.5585 35.0051 40.7282 34.9994 40.8942 35.0184C41.3386 35.0714 41.6782 35.4352 41.7049 35.8748C41.7335 36.3163 41.3978 36.7502 40.9514 36.8336C40.8179 36.8582 40.6767 36.8525 40.5394 36.8525C34.1112 36.8525 27.6848 36.8525 21.2566 36.8525C20.6081 36.8525 20.2323 36.61 20.1331 36.1363C20.0072 35.5451 20.3944 35.0335 21.0143 35.0127C21.6724 34.9899 22.3305 35.0051 22.9886 35.0032C25.6362 35.0032 28.2838 35.0032 30.9314 35.0032L30.9333 35.0051Z" fill="#E7ECF8"/>
</svg>
