<svg xmlns="http://www.w3.org/2000/svg" width="60" height="60" viewBox="0 0 60 60">
  <g id="SSI_Framework" data-name="SSI Framework" transform="translate(-1012 -336)">
    <rect id="Rectangle_145" data-name="Rectangle 145" width="60" height="60" rx="30" transform="translate(1012 336)" fill="#4fd6e5"/>
    <g id="Group_196" data-name="Group 196" transform="translate(1291.509 339.508)">
      <path id="Path_635" data-name="Path 635" d="M-241.356,37.623c-.6.239-1.125.438-1.639.661a.4.4,0,0,0-.182.274,4.3,4.3,0,0,0-.01.6,1.553,1.553,0,0,1-1.534,1.593c-.41.018-.82.015-1.229,0a1.556,1.556,0,0,1-1.556-1.607c-.007-.766-.009-.763-.7-1.044-.292-.119-.571-.274-.868-.38a.447.447,0,0,0-.35.05,3.05,3.05,0,0,0-.4.39,1.565,1.565,0,0,1-2.211.089,10.608,10.608,0,0,1-.942-.946,1.557,1.557,0,0,1,.086-2.186c.542-.547.537-.545.241-1.23-.126-.29-.213-.6-.349-.881a.444.444,0,0,0-.287-.21,3.921,3.921,0,0,0-.6-.01,1.565,1.565,0,0,1-1.589-1.615c0-.375-.005-.75,0-1.124a1.567,1.567,0,0,1,1.583-1.586c.268-.006.6.076.784-.053s.209-.473.313-.72a5.077,5.077,0,0,1,.324-.7.351.351,0,0,0-.1-.533,1.723,1.723,0,0,1-.006-2.937c.179-.15.327-.337.5-.493a1.578,1.578,0,0,1,2.239.06c.533.531.532.529,1.228.228a2.853,2.853,0,0,1,.652-.254c.392-.063.474-.275.444-.631a1.707,1.707,0,0,1,.415-1.436A3.037,3.037,0,0,1-243.6,21a1.73,1.73,0,0,1,.417,1.333c-.01.563,0,.553.511.749.414.16.818.347,1.338.571.133-.162.29-.383.478-.573a1.557,1.557,0,0,1,2.21-.069,12.259,12.259,0,0,1,.895.894,1.566,1.566,0,0,1-.064,2.239c-.531.533-.531.532-.236,1.2.062.139.118.281.173.422.27.69.27.691,1.01.7a1.459,1.459,0,0,1,1.519,1.018,4.035,4.035,0,0,1,.015,2.252,1.452,1.452,0,0,1-1.493,1.056c-.782.013-.781.013-1.061.724-.064.164-.132.326-.2.486-.264.574-.265.573.2,1.032a1.591,1.591,0,0,1,0,2.466c-.23.233-.457.47-.7.694a1.574,1.574,0,0,1-2.289-.04C-241.051,37.973-241.21,37.785-241.356,37.623Zm3.92-8.035c-.187,0-.374,0-.562,0-.4-.01-.527-.15-.67-.534-.255-.688-.533-1.37-.84-2.036-.185-.4-.192-.585.126-.9.256-.258.508-.519.77-.771a.437.437,0,0,0,.016-.681c-.252-.277-.518-.543-.794-.8a.438.438,0,0,0-.681.02c-.268.279-.543.55-.817.823a.63.63,0,0,1-.8.107c-.7-.32-1.411-.613-2.13-.884a.64.64,0,0,1-.5-.665c.007-.375,0-.75,0-1.125a.455.455,0,0,0-.49-.515c-.363-.016-.727-.017-1.089,0s-.487.182-.489.548-.005.727,0,1.09a.64.64,0,0,1-.5.665c-.719.271-1.431.565-2.13.884a.63.63,0,0,1-.8-.106c-.266-.264-.527-.534-.794-.8a.454.454,0,0,0-.732-.025c-.259.237-.508.486-.745.745a.451.451,0,0,0,.019.732c.253.26.514.513.768.772a.625.625,0,0,1,.121.849c-.311.69-.6,1.391-.866,2.1a.638.638,0,0,1-.662.5c-.374-.007-.75.013-1.124,0a.456.456,0,0,0-.522.482,9.211,9.211,0,0,0,0,1.124.454.454,0,0,0,.533.469c.362-.011.725-.008,1.088,0,.412,0,.546.146.685.516.268.709.555,1.411.874,2.1a.644.644,0,0,1-.111.825c-.266.264-.525.536-.8.793a.449.449,0,0,0-.024.707c.245.268.5.527.769.771s.468.219.732-.041.514-.512.768-.772a.639.639,0,0,1,.823-.118c.7.321,1.411.611,2.13.883a.625.625,0,0,1,.489.637q0,.562,0,1.125c0,.361.145.523.5.54s.7.015,1.054,0c.374-.015.511-.175.514-.561,0-.363,0-.726,0-1.089a.64.64,0,0,1,.51-.658c.709-.264,1.409-.556,2.1-.867a.62.62,0,0,1,.847.125c.259.254.511.516.771.77a.452.452,0,0,0,.732.013c.25-.23.489-.472.721-.72a.46.46,0,0,0-.009-.758c-.262-.268-.531-.529-.794-.8a.633.633,0,0,1-.1-.8c.32-.7.607-1.414.885-2.131a.651.651,0,0,1,.673-.5c.362.009.725,0,1.088,0s.535-.157.55-.527c.013-.34.012-.68,0-1.019-.017-.369-.186-.516-.56-.521C-237.085,29.586-237.26,29.588-237.436,29.588Z" transform="translate(-4.161 -4.131)" fill="#fff"/>
      <path id="Path_636" data-name="Path 636" d="M-263.051,34.1h2.267V35.22h-2.145c-.037.053-.063.073-.061.09a.968.968,0,0,1-.673,1.057,13.951,13.951,0,0,0-1.214.7.663.663,0,0,1-.755,0c-.49-.3-.987-.583-1.485-.866a.7.7,0,0,1-.391-.684c.017-.573.014-1.148,0-1.721a.675.675,0,0,1,.366-.662c.518-.3,1.032-.6,1.546-.9a.629.629,0,0,1,.695.009c.37.223.744.443,1.12.656C-263.325,33.157-262.8,33.363-263.051,34.1Zm-3.368.535c.043.258,0,.585.138.708a1.833,1.833,0,0,0,1.017.559c.345,0,.709-.315,1.027-.544.1-.071.1-.313.1-.476-.006-.307.063-.709-.1-.9a1.573,1.573,0,0,0-1.009-.563,1.837,1.837,0,0,0-1.021.549C-266.407,34.095-266.375,34.416-266.419,34.637Z" transform="translate(0 -8.172)" fill="#fff"/>
      <path id="Path_637" data-name="Path 637" d="M-220.526,35.222h-2.254V34.115h2.14c.044-.053.074-.072.072-.087-.082-.582.264-.864.727-1.1.407-.2.792-.451,1.183-.686a.629.629,0,0,1,.695-.011q.77.454,1.546.9a.677.677,0,0,1,.37.661c-.015.585-.013,1.171,0,1.756a.656.656,0,0,1-.358.631q-.774.449-1.546.9a.647.647,0,0,1-.725-.016c-.379-.232-.759-.465-1.152-.671C-220.29,36.16-220.7,35.9-220.526,35.222Zm3.39-.563c-.044-.235-.007-.559-.147-.681a1.833,1.833,0,0,0-1.019-.553c-.345,0-.706.322-1.027.55-.092.065-.1.294-.09.446.01.317-.058.729.111.927a1.541,1.541,0,0,0,1.01.557,1.83,1.83,0,0,0,1.019-.555C-217.141,35.226-217.18,34.9-217.137,34.658Z" transform="translate(-15.461 -8.172)" fill="#fff"/>
      <path id="Path_638" data-name="Path 638" d="M-255.5,21.324c-.342-.352-.7-.749-1.1-1.114a.6.6,0,0,0-.452-.123c-.412.078-.815.2-1.222.313a.642.642,0,0,1-.676-.168q-.639-.651-1.29-1.291a.645.645,0,0,1-.182-.673c.155-.588.284-1.185.479-1.76a.831.831,0,0,1,.457-.459c.575-.2,1.171-.326,1.758-.481a.663.663,0,0,1,.7.2c.4.414.8.821,1.216,1.216a.72.72,0,0,1,.206.8c-.111.381-.2.771-.312,1.151a.424.424,0,0,0,.141.491c.385.357.754.732,1.158,1.129Zm-2.755-2.095c.383-.1.746-.194,1.1-.3.056-.017.1-.118.122-.189.345-1.027.344-1.027-.427-1.79-.016-.016-.033-.033-.05-.049a1.7,1.7,0,0,0-1.451.273A.911.911,0,0,0-259,17.3c-.289,1-.289,1,.455,1.724a1,1,0,0,0,.126.122A1.138,1.138,0,0,0-258.255,19.23Z" transform="translate(-2.441 -2.437)" fill="#fff"/>
      <path id="Path_639" data-name="Path 639" d="M-227.614,21.366l-.849-.806c.4-.4.8-.775,1.175-1.176a.549.549,0,0,0,.117-.419c-.08-.412-.2-.816-.315-1.222a.685.685,0,0,1,.2-.734q.632-.609,1.241-1.241a.661.661,0,0,1,.7-.2c.588.155,1.184.285,1.758.481a.835.835,0,0,1,.454.462c.194.575.324,1.172.478,1.76a.644.644,0,0,1-.187.671c-.427.417-.85.838-1.265,1.267a.661.661,0,0,1-.7.187c-.406-.11-.809-.236-1.222-.313a.6.6,0,0,0-.451.128C-226.878,20.58-227.239,20.977-227.614,21.366Zm2.3-4.62a.509.509,0,0,0-.179.079c-.253.241-.5.49-.742.743a.242.242,0,0,0-.068.184c.086.364.18.726.289,1.082.017.056.118.1.188.124,1.016.351,1.016.35,1.763-.4.024-.025.05-.048.075-.074.192-.2-.011-1.355-.273-1.447C-224.592,16.92-224.936,16.848-225.316,16.746Z" transform="translate(-13.496 -2.437)" fill="#fff"/>
      <path id="Path_640" data-name="Path 640" d="M-254.665,48.445c-.348.336-.745.7-1.112,1.088a.591.591,0,0,0-.127.448c.074.4.195.794.306,1.188a.7.7,0,0,1-.2.764c-.423.4-.835.82-1.241,1.241a.641.641,0,0,1-.669.19c-.6-.156-1.206-.292-1.793-.488a.787.787,0,0,1-.434-.44c-.194-.588-.329-1.194-.486-1.794a.644.644,0,0,1,.2-.667c.419-.408.834-.82,1.24-1.242a.683.683,0,0,1,.732-.2c.406.111.809.234,1.222.315a.551.551,0,0,0,.423-.118c.393-.366.76-.76,1.146-1.154Zm-3.094,3.74a.991.991,0,0,0,.219-.119c.835-.724.834-.726.535-1.794,0-.011-.007-.022-.01-.033-.083-.28-1.2-.639-1.421-.442-.251.227-.486.472-.717.719a.283.283,0,0,0-.07.216c.077.342.167.681.266,1.016a.277.277,0,0,0,.162.154C-258.471,52-258.143,52.082-257.759,52.185Z" transform="translate(-2.441 -13.51)" fill="#fff"/>
      <path id="Path_641" data-name="Path 641" d="M-227.631,47.543c.38.393.76.771,1.12,1.166a.426.426,0,0,0,.5.131c.393-.116.79-.21,1.185-.319a.682.682,0,0,1,.731.2q.6.62,1.216,1.216a.688.688,0,0,1,.213.729q-.233.865-.455,1.731a.627.627,0,0,1-.491.49c-.578.146-1.154.3-1.73.454a.661.661,0,0,1-.7-.187q-.608-.633-1.241-1.241a.7.7,0,0,1-.2-.766c.1-.349.163-.709.285-1.049a.56.56,0,0,0-.2-.7c-.368-.321-.709-.673-1.078-1.027Zm2.381,4.62c.318-.1.8-.1,1.045-.351a1.273,1.273,0,0,0,.309-1.095,1.9,1.9,0,0,0-.972-.974,1.265,1.265,0,0,0-1.095.308c-.244.244-.258.729-.347,1.114C-226.348,51.332-225.493,52.165-225.25,52.163Z" transform="translate(-13.491 -13.498)" fill="#fff"/>
      <path id="Path_642" data-name="Path 642" d="M-240.628,15.226h-1.125c0-.52-.019-1.031.008-1.54a.533.533,0,0,0-.336-.573,6.384,6.384,0,0,1-1.023-.61.884.884,0,0,1-.319-.565c-.041-.607-.01-1.218-.018-1.827a.632.632,0,0,1,.341-.6q.777-.445,1.546-.9a.645.645,0,0,1,.725,0q.768.461,1.546.9a.632.632,0,0,1,.343.6c-.007.6-.01,1.2,0,1.793a.671.671,0,0,1-.386.651c-.348.192-.684.408-1.035.594a.445.445,0,0,0-.275.467C-240.614,14.139-240.628,14.664-240.628,15.226Zm.6-4.206c-.043-.242,0-.567-.143-.69a1.83,1.83,0,0,0-1.02-.559,2.058,2.058,0,0,0-1.025.555c-.1.078-.1.338-.094.514.007.294-.056.686.1.86a1.614,1.614,0,0,0,1.013.563,1.838,1.838,0,0,0,1.021-.558C-240.032,11.581-240.07,11.257-240.027,11.02Z" transform="translate(-8.317)" fill="#fff"/>
      <path id="Path_643" data-name="Path 643" d="M-241.751,53.221h1.125c0,.514.018,1.025-.007,1.533a.533.533,0,0,0,.332.575,6.334,6.334,0,0,1,1.023.61.883.883,0,0,1,.322.563,13.9,13.9,0,0,1,0,1.86.843.843,0,0,1-.329.559c-.492.335-1.025.609-1.537.917a.644.644,0,0,1-.724.005q-.768-.46-1.546-.9a.629.629,0,0,1-.346-.6q.009-.914,0-1.827a.629.629,0,0,1,.351-.6c.326-.185.635-.405.973-.561a.586.586,0,0,0,.371-.658C-241.77,54.218-241.751,53.739-241.751,53.221Zm-.6,4.194c.043.234,0,.569.151.7a1.793,1.793,0,0,0,1.019.556,2.059,2.059,0,0,0,1.025-.559c.1-.079.094-.34.089-.517-.009-.293.05-.684-.11-.857a1.613,1.613,0,0,0-1.014-.559,1.878,1.878,0,0,0-1.021.561C-242.347,56.857-242.31,57.169-242.354,57.415Z" transform="translate(-8.32 -15.461)" fill="#fff"/>
      <path id="Path_644" data-name="Path 644" d="M-242.21,29.55a4.215,4.215,0,0,1,4.2,4.246,4.216,4.216,0,0,1-4.253,4.2,4.219,4.219,0,0,1-4.181-4.37A4.22,4.22,0,0,1-242.21,29.55Zm-.006,7.311a3.1,3.1,0,0,0,3.082-3.2,3.1,3.1,0,0,0-3.085-2.984,3.1,3.1,0,0,0-3.1,3A3.1,3.1,0,0,0-242.216,36.861Z" transform="translate(-7.281 -7.279)" fill="#fff"/>
    </g>
  </g>
</svg>
