<svg width="48" height="48" viewBox="0 0 48 48" fill="none" xmlns="http://www.w3.org/2000/svg">
<path d="M8.71783 4.00426C8.45366 4.02866 8.22731 4.20375 8.13763 4.45326C8.04794 4.70308 8.11078 4.98218 8.299 5.16917L12.8845 9.74916V11.2371L11.2351 12.8864L9.7523 12.8867L5.16647 8.30117C4.97094 8.10656 4.67718 8.04891 4.42246 8.15506C4.16775 8.26091 4.0015 8.50981 4.0015 8.78556V14.2532C4.00302 14.4332 4.07532 14.6052 4.20313 14.7321L7.61843 18.1512C7.74746 18.2787 7.92134 18.3498 8.10254 18.3489H13.2835L19.1505 24.2152L24.218 19.1496L18.3526 13.2845V8.09987C18.3513 7.9199 18.2784 7.74756 18.1509 7.62067L14.7356 4.20036C14.6066 4.07316 14.4324 4.00271 14.2512 4.00423H8.7835C8.76153 4.00301 8.73979 4.00304 8.71783 4.00426ZM42.1906 4.00426C42.1098 4.01463 42.0307 4.03781 41.9585 4.07503L35.1293 7.48862C34.8978 7.60392 34.7508 7.84123 34.7505 8.0999V10.5515L19.3186 25.9823L23.0167 29.6841L38.4485 14.2533H40.9003C41.1589 14.253 41.3947 14.1056 41.51 13.8744L44.9293 7.04052C45.0593 6.77728 45.0068 6.46004 44.7985 6.25324L42.7513 4.20071C42.6042 4.05338 42.3974 3.98107 42.1906 4.00426ZM29.852 24.7841L24.7845 29.8513L30.6488 35.7152V40.8998C30.6491 41.0819 30.7223 41.2561 30.8519 41.3839L34.2657 44.799C34.3939 44.928 34.5683 45.0003 34.7502 45.0003H40.2179C40.4955 45.0003 40.745 44.8325 40.8502 44.576C40.9552 44.3192 40.8948 44.0245 40.6971 43.8302L36.118 39.2502V37.7675L37.7662 36.1127H39.2502L43.8345 40.698C44.03 40.8926 44.3241 40.9505 44.5788 40.8444C44.8335 40.7385 44.9998 40.4896 44.9998 40.2139V34.7517C44.9998 34.5699 44.9272 34.3955 44.7981 34.2673L41.3828 30.847C41.2538 30.7198 41.0796 30.6494 40.8987 30.6506H35.719L29.852 24.7841ZM16.9745 25.8636C16.7964 25.8664 16.6265 25.9386 16.5008 26.0652L14.9326 27.6334L21.3651 34.0631L22.9321 32.4962C23.1972 32.2296 23.1972 31.7992 22.9321 31.5326L17.4696 26.0652C17.3387 25.9335 17.1603 25.8609 16.9745 25.8636ZM13.9677 28.5979L5.45403 37.1118C3.60113 38.9646 3.49227 41.9239 5.28199 43.7135C7.07171 45.5032 10.0325 45.3942 11.8854 43.5412L20.3975 35.0297L13.9677 28.5979Z" fill="#E7ECF8"/>
<path d="M42.1906 4.00426C42.1098 4.01463 42.0307 4.03781 41.9585 4.07503L35.1293 7.48862C34.8978 7.60392 34.7508 7.84123 34.7505 8.0999V10.5515L19.3186 25.9823L23.0167 29.6841L38.4485 14.2533H40.9003C41.1589 14.253 41.3947 14.1056 41.51 13.8744L44.9293 7.04052C45.0593 6.77728 45.0068 6.46004 44.7985 6.25324L42.7513 4.20071C42.6042 4.05338 42.3974 3.98107 42.1906 4.00426ZM16.9745 25.8636C16.7964 25.8664 16.6265 25.9386 16.5008 26.0652L14.9326 27.6334L21.3651 34.0631L22.9321 32.4962C23.1972 32.2296 23.1972 31.7992 22.9321 31.5326L17.4696 26.0652C17.3387 25.9335 17.1603 25.8609 16.9745 25.8636ZM13.9677 28.5979L5.45403 37.1118C3.60113 38.9646 3.49227 41.9239 5.28199 43.7135C7.07171 45.5032 10.0325 45.3942 11.8854 43.5412L20.3975 35.0297L13.9677 28.5979Z" fill="#0755E9"/>
</svg>
