<svg width="48" height="48" viewBox="0 0 48 48" fill="none" xmlns="http://www.w3.org/2000/svg">
<path d="M44.3169 4H3.67338C1.64899 4 0 5.65537 0 7.69734V12.6539H48V7.69734C48 5.65537 46.351 4 44.3169 4ZM5.3 10.1319H5.15637C4.61088 10.1319 4.16885 9.68819 4.16885 9.14054C4.16885 8.59329 4.61083 8.14919 5.15637 8.14919H5.3C5.84514 8.14919 6.28752 8.59325 6.28752 9.14054C6.28752 9.68814 5.84554 10.1319 5.3 10.1319ZM8.50923 10.1319H8.3656C7.82011 10.1319 7.37808 9.68819 7.37808 9.14054C7.37808 8.59329 7.82006 8.14919 8.3656 8.14919H8.50923C9.05437 8.14919 9.49675 8.59325 9.49675 9.14054C9.49675 9.68814 9.05477 10.1319 8.50923 10.1319ZM11.7185 10.1319H11.5748C11.0293 10.1319 10.5873 9.68819 10.5873 9.14054C10.5873 8.59329 11.0293 8.14919 11.5748 8.14919H11.7185C12.2636 8.14919 12.706 8.59325 12.706 9.14054C12.706 9.68814 12.264 10.1319 11.7185 10.1319Z" fill="#0755E9"/>
<path d="M17.265 30.2106C17.4266 30.8535 17.6773 31.4619 18.01 32.0189C18.197 32.3324 18.197 32.7243 18.01 33.0382L17.279 34.2629L18.2249 35.2121L19.4455 34.4836C19.7585 34.2966 20.1472 34.2977 20.4581 34.4854C21.0125 34.8187 21.6182 35.0704 22.259 35.2326C22.6104 35.3217 22.8847 35.5964 22.9743 35.9488L23.3271 37.3374H24.6616L25.0084 35.952C25.0975 35.5946 25.3773 35.3167 25.734 35.23C26.3483 35.0815 26.9504 34.8306 27.5252 34.4847C27.8368 34.2963 28.2262 34.2963 28.5385 34.4836L29.766 35.2185L30.7077 34.2693L29.9792 33.0332C29.7961 32.7229 29.7954 32.3374 29.9767 32.0267C30.3205 31.4388 30.573 30.8301 30.7274 30.2185C30.8162 29.8646 31.092 29.5889 31.4437 29.5001L32.8231 29.1524V27.8058L31.4512 27.4588C31.0988 27.3697 30.8241 27.0939 30.7349 26.7404C30.5716 26.0904 30.3198 25.4748 29.987 24.9103C29.8029 24.5971 29.804 24.2073 29.9903 23.8959L30.7116 22.6882L29.7667 21.739L28.5458 22.4675C28.2327 22.6541 27.8437 22.6533 27.5328 22.4653C26.9798 22.1323 26.3738 21.8807 25.7315 21.7171C25.3791 21.6279 25.1044 21.351 25.0159 20.9979L24.6696 19.6133H23.3286L22.9829 20.9904C22.8941 21.3442 22.6194 21.62 22.2669 21.7095C21.6516 21.8652 21.0384 22.1194 20.4446 22.4646C20.1354 22.6451 19.7518 22.6426 19.4438 22.4577L18.2317 21.7311L17.2862 22.6803L18.0101 23.897C18.1956 24.2088 18.1967 24.5975 18.0126 24.9103C17.6702 25.4906 17.4155 26.1065 17.2558 26.7408C17.1669 27.0935 16.8919 27.3697 16.5398 27.4585L15.168 27.8055V29.1426L16.548 29.4907C16.9008 29.5806 17.1759 29.8567 17.2651 30.2105L17.265 30.2106ZM23.6931 23.7123C23.764 23.7026 23.874 23.7008 23.9968 23.7008C26.6201 23.7008 28.7549 25.8394 28.7549 28.4674C28.7549 31.1062 26.6202 33.2531 23.9968 33.2531C21.3851 33.2531 19.251 31.1123 19.2392 28.4811C19.2396 25.9555 21.1956 23.8672 23.6931 23.7122L23.6931 23.7123Z" fill="#2569E6"/>
<path d="M0 40.9547C0 42.987 1.64899 44.6423 3.67338 44.6423H44.3169C46.351 44.6423 48 42.987 48 40.9547V14.6367H0V40.9547ZM13.1954 27.0345C13.1954 26.5804 13.5031 26.1842 13.9419 26.0734L15.5114 25.6765C15.6507 25.2504 15.8233 24.8333 16.0279 24.4282L15.1994 23.0352C14.9673 22.6451 15.0285 22.1471 15.3488 21.826L17.3821 19.7848C17.7013 19.464 18.1973 19.4015 18.5867 19.6348L19.9782 20.4686C20.3822 20.2655 20.7941 20.0943 21.2096 19.957L21.6051 18.3811C21.7154 17.9406 22.1104 17.6317 22.5624 17.6317H25.4428C25.8956 17.6317 26.2906 17.941 26.4006 18.3814L26.7963 19.9642C27.2211 20.1037 27.632 20.2741 28.0259 20.4744L29.4203 19.6424C29.81 19.4094 30.3032 19.473 30.623 19.7934L32.6564 21.8346C32.977 22.156 33.0382 22.6555 32.805 23.0452L31.9777 24.4306C32.1779 24.8304 32.348 25.2472 32.4866 25.6764L34.0547 26.0734C34.4935 26.1841 34.8012 26.5807 34.8012 27.0345V29.9264C34.8012 30.3809 34.4931 30.7775 34.0544 30.8874L32.4759 31.2855C32.3394 31.699 32.1693 32.1074 31.9673 32.5087L32.7993 33.9207C33.0289 34.3094 32.9673 34.8045 32.6493 35.1248L30.6245 37.1664C30.305 37.4882 29.8086 37.5508 29.4192 37.3185L28.017 36.4793C27.6158 36.6846 27.205 36.8558 26.787 36.9917L26.3923 38.5712C26.2823 39.0117 25.8873 39.3209 25.4346 39.3209H22.5624C22.1111 39.3209 21.7171 39.0135 21.6057 38.5744L21.2027 36.9888C20.778 36.85 20.3661 36.6788 19.9713 36.4782L18.577 37.3102C18.1873 37.5432 17.6933 37.4806 17.3739 37.1592L15.3401 35.118C15.0199 34.7965 14.9583 34.2974 15.1911 33.9074L16.0264 32.508C15.8272 32.1125 15.6575 31.7011 15.5196 31.2761L13.9426 30.8788C13.5038 30.7684 13.1958 30.3722 13.1958 29.9177L13.1954 27.0345Z" fill="#E7ECF8"/>
</svg>
